<svg width="900" height="1200" viewBox="0 0 900 1200" xmlns="http://www.w3.org/2000/svg">
<defs>
<style>
@import url('https://fonts.googleapis.com/css2?family=Anton&family=Bungee&family=Poppins:wght@400;600;700&display=swap');
.headline { font-family: 'Anton', 'Arial Black', sans-serif; }
.badge-text { font-family: 'Bungee', 'Arial Black', sans-serif; }
.body-text { font-family: 'Poppins', sans-serif; }
</style>
<pattern id="halftone" width="16" height="16" patternUnits="userSpaceOnUse" patternTransform="rotate(0)">
  <rect width="16" height="16" fill="#4B3F8F"/>
  <rect x="0" y="0" width="8" height="8" fill="#F3D9E8"/>
  <rect x="8" y="8" width="8" height="8" fill="#F3D9E8"/>
</pattern>
<clipPath id="discoClip">
  <circle cx="760" cy="120" r="230"/>
</clipPath>
</defs>

<rect width="900" height="1200" fill="#F3D9E8"/>
<circle cx="575.5" cy="30.0" r="1.0" fill="#C23F8C" opacity="0.14"/>
<circle cx="92.2" cy="888.8" r="1.5" fill="#7A3D74" opacity="0.24"/>
<circle cx="26.8" cy="262.4" r="1.4" fill="#7A3D74" opacity="0.09"/>
<circle cx="644.4" cy="841.6" r="1.3" fill="#4B3F8F" opacity="0.20"/>
<circle cx="728.5" cy="7.8" r="1.9" fill="#4B3F8F" opacity="0.27"/>
<circle cx="250.1" cy="258.4" r="1.8" fill="#4B3F8F" opacity="0.11"/>
<circle cx="87.0" cy="1017.0" r="1.6" fill="#C23F8C" opacity="0.30"/>
<circle cx="413.5" cy="149.8" r="2.1" fill="#4B3F8F" opacity="0.10"/>
<circle cx="746.5" cy="742.2" r="2.0" fill="#C23F8C" opacity="0.24"/>
<circle cx="62.6" cy="793.5" r="1.8" fill="#7A3D74" opacity="0.35"/>
<circle cx="779.8" cy="456.2" r="1.3" fill="#7A3D74" opacity="0.31"/>
<circle cx="333.2" cy="251.4" r="1.0" fill="#C23F8C" opacity="0.33"/>
<circle cx="64.3" cy="762.0" r="1.5" fill="#4B3F8F" opacity="0.15"/>
<circle cx="341.5" cy="1187.4" r="1.6" fill="#C23F8C" opacity="0.23"/>
<circle cx="291.9" cy="922.0" r="0.7" fill="#4B3F8F" opacity="0.30"/>
<circle cx="361.0" cy="79.4" r="2.1" fill="#C23F8C" opacity="0.23"/>
<circle cx="283.2" cy="786.5" r="1.2" fill="#4B3F8F" opacity="0.33"/>
<circle cx="128.6" cy="167.6" r="1.8" fill="#C23F8C" opacity="0.23"/>
<circle cx="526.1" cy="1077.4" r="1.2" fill="#7A3D74" opacity="0.14"/>
<circle cx="458.6" cy="109.1" r="0.7" fill="#C23F8C" opacity="0.11"/>
<circle cx="144.0" cy="816.6" r="1.6" fill="#C23F8C" opacity="0.18"/>
<circle cx="896.5" cy="634.9" r="2.2" fill="#7A3D74" opacity="0.31"/>
<circle cx="612.3" cy="137.5" r="2.0" fill="#C23F8C" opacity="0.28"/>
<circle cx="306.2" cy="352.2" r="0.9" fill="#C23F8C" opacity="0.08"/>
<circle cx="788.3" cy="316.1" r="1.4" fill="#7A3D74" opacity="0.13"/>
<circle cx="783.5" cy="358.1" r="1.6" fill="#7A3D74" opacity="0.24"/>
<circle cx="336.5" cy="193.9" r="2.1" fill="#7A3D74" opacity="0.33"/>
<circle cx="539.1" cy="586.3" r="0.8" fill="#4B3F8F" opacity="0.18"/>
<circle cx="215.5" cy="289.0" r="1.5" fill="#C23F8C" opacity="0.10"/>
<circle cx="437.4" cy="83.1" r="1.8" fill="#7A3D74" opacity="0.29"/>
<circle cx="593.8" cy="1136.2" r="0.9" fill="#C23F8C" opacity="0.22"/>
<circle cx="380.8" cy="254.2" r="1.5" fill="#7A3D74" opacity="0.28"/>
<circle cx="641.7" cy="478.8" r="1.7" fill="#C23F8C" opacity="0.18"/>
<circle cx="406.3" cy="297.5" r="0.7" fill="#C23F8C" opacity="0.09"/>
<circle cx="207.1" cy="264.3" r="0.7" fill="#7A3D74" opacity="0.25"/>
<circle cx="60.7" cy="37.7" r="1.1" fill="#4B3F8F" opacity="0.22"/>
<circle cx="602.1" cy="257.1" r="0.8" fill="#C23F8C" opacity="0.33"/>
<circle cx="518.6" cy="291.6" r="1.4" fill="#7A3D74" opacity="0.19"/>
<circle cx="87.2" cy="517.3" r="1.3" fill="#C23F8C" opacity="0.21"/>
<circle cx="48.8" cy="784.1" r="1.6" fill="#C23F8C" opacity="0.10"/>
<circle cx="305.4" cy="1034.0" r="1.0" fill="#4B3F8F" opacity="0.13"/>
<circle cx="126.2" cy="220.2" r="1.3" fill="#7A3D74" opacity="0.32"/>
<circle cx="398.8" cy="1033.6" r="1.5" fill="#C23F8C" opacity="0.09"/>
<circle cx="752.4" cy="1162.8" r="2.1" fill="#7A3D74" opacity="0.31"/>
<circle cx="365.8" cy="577.6" r="2.0" fill="#7A3D74" opacity="0.32"/>
<circle cx="341.1" cy="1182.4" r="1.0" fill="#4B3F8F" opacity="0.29"/>
<circle cx="256.7" cy="835.9" r="1.8" fill="#C23F8C" opacity="0.29"/>
<circle cx="646.6" cy="185.8" r="1.1" fill="#C23F8C" opacity="0.34"/>
<circle cx="662.2" cy="73.1" r="1.1" fill="#4B3F8F" opacity="0.09"/>
<circle cx="452.6" cy="1023.3" r="0.9" fill="#7A3D74" opacity="0.34"/>
<circle cx="766.2" cy="82.2" r="0.7" fill="#4B3F8F" opacity="0.31"/>
<circle cx="107.9" cy="1068.3" r="1.0" fill="#C23F8C" opacity="0.24"/>
<circle cx="73.8" cy="788.8" r="1.5" fill="#4B3F8F" opacity="0.17"/>
<circle cx="183.8" cy="859.4" r="1.0" fill="#C23F8C" opacity="0.19"/>
<circle cx="581.0" cy="548.7" r="2.1" fill="#7A3D74" opacity="0.33"/>
<circle cx="412.5" cy="1198.1" r="2.2" fill="#7A3D74" opacity="0.10"/>
<circle cx="455.3" cy="158.9" r="1.2" fill="#7A3D74" opacity="0.10"/>
<circle cx="332.6" cy="189.3" r="1.9" fill="#C23F8C" opacity="0.27"/>
<circle cx="885.5" cy="968.5" r="1.4" fill="#C23F8C" opacity="0.26"/>
<circle cx="269.4" cy="796.1" r="2.1" fill="#7A3D74" opacity="0.12"/>
<circle cx="800.7" cy="890.9" r="0.8" fill="#7A3D74" opacity="0.16"/>
<circle cx="645.9" cy="244.3" r="1.6" fill="#4B3F8F" opacity="0.15"/>
<circle cx="226.0" cy="1089.8" r="0.7" fill="#4B3F8F" opacity="0.25"/>
<circle cx="39.7" cy="400.3" r="0.8" fill="#7A3D74" opacity="0.34"/>
<circle cx="667.1" cy="662.0" r="1.3" fill="#7A3D74" opacity="0.08"/>
<circle cx="850.5" cy="829.2" r="0.8" fill="#4B3F8F" opacity="0.09"/>
<circle cx="524.3" cy="177.7" r="0.8" fill="#7A3D74" opacity="0.16"/>
<circle cx="809.0" cy="252.1" r="1.0" fill="#C23F8C" opacity="0.11"/>
<circle cx="795.7" cy="487.7" r="1.6" fill="#7A3D74" opacity="0.12"/>
<circle cx="778.1" cy="1171.4" r="1.9" fill="#7A3D74" opacity="0.32"/>
<circle cx="161.4" cy="1109.4" r="1.9" fill="#C23F8C" opacity="0.19"/>
<circle cx="777.7" cy="972.9" r="1.0" fill="#7A3D74" opacity="0.29"/>
<circle cx="344.3" cy="46.5" r="1.4" fill="#4B3F8F" opacity="0.13"/>
<circle cx="314.7" cy="984.6" r="2.0" fill="#C23F8C" opacity="0.14"/>
<circle cx="173.8" cy="393.9" r="2.0" fill="#4B3F8F" opacity="0.34"/>
<circle cx="316.0" cy="611.3" r="1.7" fill="#4B3F8F" opacity="0.31"/>
<circle cx="845.3" cy="138.4" r="2.2" fill="#4B3F8F" opacity="0.13"/>
<circle cx="34.4" cy="715.9" r="1.2" fill="#4B3F8F" opacity="0.29"/>
<circle cx="545.6" cy="613.7" r="1.2" fill="#4B3F8F" opacity="0.24"/>
<circle cx="39.9" cy="523.3" r="1.4" fill="#C23F8C" opacity="0.30"/>
<circle cx="647.5" cy="890.3" r="1.7" fill="#7A3D74" opacity="0.18"/>
<circle cx="854.0" cy="1104.9" r="1.6" fill="#7A3D74" opacity="0.26"/>
<circle cx="647.8" cy="360.4" r="1.1" fill="#4B3F8F" opacity="0.19"/>
<circle cx="627.5" cy="665.3" r="0.9" fill="#4B3F8F" opacity="0.26"/>
<circle cx="609.6" cy="1083.4" r="1.6" fill="#C23F8C" opacity="0.16"/>
<circle cx="750.4" cy="364.6" r="0.9" fill="#C23F8C" opacity="0.29"/>
<circle cx="589.2" cy="558.0" r="1.3" fill="#4B3F8F" opacity="0.14"/>
<circle cx="714.4" cy="1151.8" r="1.8" fill="#4B3F8F" opacity="0.26"/>
<circle cx="463.9" cy="759.5" r="1.1" fill="#7A3D74" opacity="0.30"/>
<circle cx="605.5" cy="269.6" r="0.9" fill="#7A3D74" opacity="0.09"/>
<circle cx="885.5" cy="733.5" r="1.8" fill="#C23F8C" opacity="0.20"/>
<circle cx="518.1" cy="862.0" r="1.2" fill="#7A3D74" opacity="0.19"/>
<circle cx="590.5" cy="6.7" r="1.8" fill="#7A3D74" opacity="0.29"/>
<circle cx="700.6" cy="262.6" r="1.9" fill="#4B3F8F" opacity="0.27"/>
<circle cx="45.2" cy="299.0" r="2.0" fill="#4B3F8F" opacity="0.20"/>
<circle cx="600.8" cy="1185.5" r="1.6" fill="#4B3F8F" opacity="0.34"/>
<circle cx="551.4" cy="863.1" r="1.4" fill="#C23F8C" opacity="0.30"/>
<circle cx="401.3" cy="191.0" r="2.0" fill="#7A3D74" opacity="0.20"/>
<circle cx="755.9" cy="332.8" r="1.8" fill="#7A3D74" opacity="0.21"/>
<circle cx="247.1" cy="93.0" r="1.1" fill="#4B3F8F" opacity="0.15"/>
<circle cx="803.7" cy="96.7" r="0.8" fill="#7A3D74" opacity="0.18"/>
<circle cx="635.8" cy="77.1" r="1.3" fill="#4B3F8F" opacity="0.23"/>
<circle cx="56.0" cy="999.5" r="1.2" fill="#C23F8C" opacity="0.29"/>
<circle cx="17.6" cy="1056.8" r="1.5" fill="#4B3F8F" opacity="0.21"/>
<circle cx="268.8" cy="468.0" r="2.0" fill="#C23F8C" opacity="0.31"/>
<circle cx="672.8" cy="655.4" r="1.6" fill="#7A3D74" opacity="0.14"/>
<circle cx="245.6" cy="582.8" r="1.2" fill="#4B3F8F" opacity="0.26"/>
<circle cx="651.8" cy="1008.6" r="2.1" fill="#C23F8C" opacity="0.34"/>
<circle cx="24.3" cy="472.8" r="1.5" fill="#C23F8C" opacity="0.09"/>
<circle cx="385.8" cy="1040.2" r="0.9" fill="#4B3F8F" opacity="0.15"/>
<circle cx="190.5" cy="392.2" r="1.8" fill="#4B3F8F" opacity="0.18"/>
<circle cx="227.0" cy="98.3" r="0.6" fill="#4B3F8F" opacity="0.23"/>
<circle cx="201.8" cy="82.3" r="2.1" fill="#7A3D74" opacity="0.09"/>
<circle cx="854.7" cy="239.2" r="0.6" fill="#7A3D74" opacity="0.12"/>
<circle cx="426.2" cy="137.3" r="2.1" fill="#4B3F8F" opacity="0.21"/>
<circle cx="690.2" cy="201.3" r="1.6" fill="#7A3D74" opacity="0.28"/>
<circle cx="700.0" cy="196.5" r="1.1" fill="#4B3F8F" opacity="0.24"/>
<circle cx="518.2" cy="1089.6" r="1.2" fill="#7A3D74" opacity="0.33"/>
<circle cx="68.4" cy="828.7" r="1.6" fill="#4B3F8F" opacity="0.11"/>
<circle cx="765.3" cy="720.5" r="0.8" fill="#7A3D74" opacity="0.35"/>
<circle cx="312.5" cy="514.1" r="1.2" fill="#4B3F8F" opacity="0.22"/>
<circle cx="11.4" cy="504.1" r="1.4" fill="#4B3F8F" opacity="0.20"/>
<circle cx="572.0" cy="994.4" r="1.7" fill="#C23F8C" opacity="0.20"/>
<circle cx="469.6" cy="780.5" r="1.6" fill="#4B3F8F" opacity="0.33"/>
<circle cx="418.4" cy="990.9" r="1.5" fill="#7A3D74" opacity="0.17"/>
<circle cx="747.7" cy="104.0" r="2.0" fill="#4B3F8F" opacity="0.15"/>
<circle cx="512.9" cy="801.8" r="1.1" fill="#4B3F8F" opacity="0.21"/>
<circle cx="163.7" cy="254.5" r="1.9" fill="#C23F8C" opacity="0.17"/>
<circle cx="631.1" cy="331.5" r="0.6" fill="#7A3D74" opacity="0.34"/>
<circle cx="217.2" cy="487.7" r="1.5" fill="#4B3F8F" opacity="0.14"/>
<circle cx="581.3" cy="589.0" r="1.9" fill="#7A3D74" opacity="0.11"/>
<circle cx="364.0" cy="292.0" r="1.7" fill="#C23F8C" opacity="0.18"/>
<circle cx="477.8" cy="510.6" r="1.8" fill="#C23F8C" opacity="0.17"/>
<circle cx="408.4" cy="367.9" r="1.0" fill="#4B3F8F" opacity="0.27"/>
<circle cx="107.6" cy="643.0" r="1.8" fill="#7A3D74" opacity="0.13"/>
<circle cx="664.7" cy="331.8" r="1.5" fill="#C23F8C" opacity="0.29"/>
<circle cx="254.7" cy="120.6" r="0.9" fill="#7A3D74" opacity="0.14"/>
<circle cx="272.0" cy="849.6" r="0.8" fill="#7A3D74" opacity="0.09"/>
<circle cx="498.0" cy="836.9" r="0.8" fill="#4B3F8F" opacity="0.31"/>
<circle cx="92.3" cy="14.7" r="1.1" fill="#4B3F8F" opacity="0.21"/>
<circle cx="165.9" cy="61.7" r="2.1" fill="#7A3D74" opacity="0.21"/>
<circle cx="360.6" cy="88.9" r="1.6" fill="#7A3D74" opacity="0.09"/>
<circle cx="730.0" cy="1139.0" r="0.7" fill="#C23F8C" opacity="0.15"/>
<circle cx="688.0" cy="727.6" r="1.9" fill="#C23F8C" opacity="0.14"/>
<circle cx="342.3" cy="1090.2" r="1.1" fill="#4B3F8F" opacity="0.24"/>
<circle cx="274.8" cy="745.2" r="1.6" fill="#7A3D74" opacity="0.28"/>
<circle cx="563.0" cy="317.6" r="0.7" fill="#C23F8C" opacity="0.14"/>
<circle cx="67.6" cy="3.2" r="1.3" fill="#4B3F8F" opacity="0.24"/>
<circle cx="29.4" cy="345.7" r="1.1" fill="#7A3D74" opacity="0.31"/>
<circle cx="618.6" cy="1108.7" r="1.9" fill="#C23F8C" opacity="0.25"/>
<circle cx="723.5" cy="237.4" r="0.8" fill="#7A3D74" opacity="0.14"/>
<circle cx="817.6" cy="992.0" r="0.7" fill="#4B3F8F" opacity="0.12"/>
<circle cx="535.5" cy="989.1" r="2.1" fill="#4B3F8F" opacity="0.20"/>
<circle cx="619.8" cy="839.7" r="2.1" fill="#4B3F8F" opacity="0.22"/>
<circle cx="394.0" cy="717.6" r="2.0" fill="#C23F8C" opacity="0.28"/>
<circle cx="225.3" cy="109.6" r="2.1" fill="#C23F8C" opacity="0.31"/>
<circle cx="528.4" cy="24.9" r="1.8" fill="#C23F8C" opacity="0.30"/>
<circle cx="36.2" cy="907.5" r="1.4" fill="#4B3F8F" opacity="0.26"/>
<circle cx="163.3" cy="702.4" r="1.6" fill="#7A3D74" opacity="0.21"/>
<circle cx="423.0" cy="490.0" r="1.1" fill="#7A3D74" opacity="0.11"/>
<circle cx="296.8" cy="832.4" r="1.1" fill="#C23F8C" opacity="0.34"/>
<circle cx="33.0" cy="105.7" r="1.0" fill="#4B3F8F" opacity="0.11"/>
<circle cx="778.4" cy="989.9" r="0.6" fill="#4B3F8F" opacity="0.31"/>
<circle cx="371.9" cy="225.1" r="1.2" fill="#C23F8C" opacity="0.28"/>
<circle cx="397.8" cy="61.9" r="1.0" fill="#4B3F8F" opacity="0.12"/>
<circle cx="394.3" cy="837.9" r="0.8" fill="#C23F8C" opacity="0.34"/>
<circle cx="719.4" cy="851.7" r="1.1" fill="#4B3F8F" opacity="0.08"/>
<circle cx="83.9" cy="1190.7" r="2.1" fill="#7A3D74" opacity="0.20"/>
<circle cx="582.9" cy="184.8" r="2.1" fill="#C23F8C" opacity="0.16"/>
<circle cx="246.1" cy="1001.7" r="2.2" fill="#C23F8C" opacity="0.15"/>
<circle cx="130.2" cy="228.7" r="1.6" fill="#7A3D74" opacity="0.28"/>
<circle cx="777.6" cy="331.5" r="1.9" fill="#C23F8C" opacity="0.19"/>
<circle cx="240.5" cy="3.1" r="1.8" fill="#C23F8C" opacity="0.31"/>
<circle cx="899.0" cy="587.6" r="0.8" fill="#4B3F8F" opacity="0.23"/>
<circle cx="299.2" cy="915.4" r="1.2" fill="#7A3D74" opacity="0.33"/>
<circle cx="882.7" cy="286.6" r="1.2" fill="#4B3F8F" opacity="0.31"/>
<circle cx="39.3" cy="893.6" r="1.7" fill="#4B3F8F" opacity="0.30"/>
<circle cx="889.6" cy="950.9" r="1.6" fill="#7A3D74" opacity="0.12"/>
<circle cx="113.6" cy="1158.4" r="1.1" fill="#4B3F8F" opacity="0.11"/>
<circle cx="89.7" cy="1092.5" r="0.6" fill="#C23F8C" opacity="0.12"/>
<circle cx="873.0" cy="89.8" r="1.9" fill="#C23F8C" opacity="0.15"/>
<circle cx="623.4" cy="779.8" r="2.0" fill="#C23F8C" opacity="0.31"/>
<circle cx="342.0" cy="380.0" r="1.7" fill="#C23F8C" opacity="0.29"/>
<circle cx="32.3" cy="82.1" r="1.6" fill="#7A3D74" opacity="0.33"/>
<circle cx="672.1" cy="520.8" r="0.8" fill="#7A3D74" opacity="0.25"/>
<circle cx="399.3" cy="832.8" r="2.0" fill="#7A3D74" opacity="0.09"/>
<circle cx="264.0" cy="449.8" r="0.8" fill="#C23F8C" opacity="0.22"/>
<circle cx="613.6" cy="216.1" r="0.9" fill="#4B3F8F" opacity="0.24"/>
<circle cx="557.7" cy="289.0" r="2.1" fill="#4B3F8F" opacity="0.12"/>
<circle cx="574.1" cy="551.5" r="1.7" fill="#4B3F8F" opacity="0.32"/>
<circle cx="811.1" cy="813.1" r="0.9" fill="#4B3F8F" opacity="0.20"/>
<circle cx="888.9" cy="359.0" r="2.1" fill="#4B3F8F" opacity="0.27"/>
<circle cx="760.8" cy="239.1" r="1.2" fill="#7A3D74" opacity="0.21"/>
<circle cx="343.2" cy="430.8" r="1.1" fill="#7A3D74" opacity="0.27"/>
<circle cx="880.2" cy="789.9" r="1.0" fill="#C23F8C" opacity="0.23"/>
<circle cx="700.5" cy="1168.3" r="2.1" fill="#4B3F8F" opacity="0.28"/>
<circle cx="698.2" cy="276.1" r="1.9" fill="#7A3D74" opacity="0.14"/>
<circle cx="558.8" cy="813.3" r="1.8" fill="#7A3D74" opacity="0.26"/>
<circle cx="565.4" cy="1084.1" r="1.6" fill="#4B3F8F" opacity="0.16"/>
<circle cx="30.0" cy="437.8" r="0.8" fill="#4B3F8F" opacity="0.33"/>
<circle cx="672.7" cy="210.8" r="0.8" fill="#4B3F8F" opacity="0.23"/>
<circle cx="477.8" cy="1096.2" r="1.9" fill="#4B3F8F" opacity="0.15"/>
<circle cx="870.6" cy="354.2" r="2.0" fill="#4B3F8F" opacity="0.30"/>
<circle cx="866.6" cy="168.9" r="2.1" fill="#C23F8C" opacity="0.31"/>
<circle cx="607.0" cy="476.9" r="2.0" fill="#7A3D74" opacity="0.23"/>
<circle cx="711.6" cy="16.7" r="1.5" fill="#C23F8C" opacity="0.20"/>
<circle cx="674.1" cy="314.6" r="1.2" fill="#4B3F8F" opacity="0.25"/>
<circle cx="97.5" cy="280.6" r="0.6" fill="#C23F8C" opacity="0.32"/>
<circle cx="295.2" cy="732.1" r="1.6" fill="#4B3F8F" opacity="0.25"/>
<circle cx="818.4" cy="362.6" r="1.3" fill="#7A3D74" opacity="0.12"/>
<circle cx="273.9" cy="591.1" r="0.8" fill="#7A3D74" opacity="0.32"/>
<circle cx="349.8" cy="445.2" r="2.1" fill="#C23F8C" opacity="0.27"/>
<circle cx="377.2" cy="890.7" r="0.8" fill="#7A3D74" opacity="0.19"/>
<circle cx="750.3" cy="738.8" r="2.1" fill="#C23F8C" opacity="0.16"/>
<circle cx="333.5" cy="532.1" r="2.1" fill="#7A3D74" opacity="0.31"/>
<circle cx="882.8" cy="440.8" r="2.0" fill="#7A3D74" opacity="0.25"/>
<circle cx="358.3" cy="227.8" r="0.8" fill="#4B3F8F" opacity="0.31"/>
<circle cx="82.5" cy="254.5" r="1.6" fill="#7A3D74" opacity="0.34"/>
<circle cx="708.1" cy="292.3" r="0.8" fill="#7A3D74" opacity="0.23"/>
<circle cx="746.8" cy="665.0" r="1.5" fill="#7A3D74" opacity="0.30"/>
<circle cx="295.7" cy="177.1" r="2.0" fill="#7A3D74" opacity="0.08"/>
<circle cx="888.8" cy="648.3" r="1.9" fill="#7A3D74" opacity="0.11"/>
<circle cx="118.6" cy="429.9" r="1.9" fill="#7A3D74" opacity="0.24"/>
<circle cx="156.8" cy="62.9" r="1.8" fill="#C23F8C" opacity="0.22"/>
<circle cx="57.2" cy="537.9" r="1.2" fill="#4B3F8F" opacity="0.24"/>
<circle cx="453.5" cy="1134.5" r="0.7" fill="#C23F8C" opacity="0.29"/>
<circle cx="469.3" cy="549.7" r="2.1" fill="#4B3F8F" opacity="0.10"/>
<circle cx="762.6" cy="511.5" r="0.8" fill="#4B3F8F" opacity="0.27"/>
<circle cx="66.1" cy="96.9" r="1.6" fill="#4B3F8F" opacity="0.10"/>
<circle cx="561.9" cy="702.4" r="1.7" fill="#C23F8C" opacity="0.18"/>
<circle cx="477.5" cy="544.5" r="1.6" fill="#C23F8C" opacity="0.11"/>
<circle cx="103.0" cy="785.7" r="2.0" fill="#7A3D74" opacity="0.23"/>
<circle cx="387.1" cy="1065.7" r="1.3" fill="#4B3F8F" opacity="0.30"/>
<circle cx="374.4" cy="114.1" r="1.3" fill="#4B3F8F" opacity="0.26"/>
<circle cx="858.2" cy="824.2" r="1.4" fill="#7A3D74" opacity="0.10"/>
<circle cx="83.9" cy="115.9" r="1.8" fill="#C23F8C" opacity="0.30"/>
<circle cx="54.0" cy="1147.9" r="1.5" fill="#4B3F8F" opacity="0.26"/>
<circle cx="318.2" cy="798.4" r="1.8" fill="#C23F8C" opacity="0.31"/>
<circle cx="46.3" cy="345.2" r="1.1" fill="#C23F8C" opacity="0.11"/>
<circle cx="191.5" cy="788.1" r="1.0" fill="#C23F8C" opacity="0.11"/>
<circle cx="330.8" cy="915.1" r="1.5" fill="#C23F8C" opacity="0.30"/>
<circle cx="877.1" cy="982.1" r="1.6" fill="#7A3D74" opacity="0.25"/>
<circle cx="548.1" cy="789.4" r="1.7" fill="#4B3F8F" opacity="0.09"/>
<circle cx="632.4" cy="370.8" r="1.1" fill="#7A3D74" opacity="0.08"/>
<circle cx="509.7" cy="480.9" r="0.8" fill="#7A3D74" opacity="0.25"/>
<circle cx="82.6" cy="636.6" r="1.2" fill="#7A3D74" opacity="0.20"/>
<circle cx="333.0" cy="865.9" r="1.8" fill="#7A3D74" opacity="0.23"/>
<circle cx="795.0" cy="186.7" r="1.8" fill="#7A3D74" opacity="0.09"/>
<circle cx="244.9" cy="794.3" r="1.4" fill="#4B3F8F" opacity="0.20"/>
<circle cx="194.0" cy="614.8" r="1.2" fill="#C23F8C" opacity="0.11"/>
<circle cx="610.6" cy="584.0" r="1.7" fill="#4B3F8F" opacity="0.09"/>
<circle cx="886.0" cy="65.7" r="0.9" fill="#7A3D74" opacity="0.34"/>
<circle cx="687.7" cy="347.3" r="0.8" fill="#4B3F8F" opacity="0.21"/>
<circle cx="158.1" cy="456.2" r="1.7" fill="#C23F8C" opacity="0.22"/>
<circle cx="725.6" cy="86.5" r="2.0" fill="#7A3D74" opacity="0.09"/>
<circle cx="413.8" cy="93.4" r="1.1" fill="#4B3F8F" opacity="0.20"/>
<circle cx="638.5" cy="501.2" r="0.8" fill="#4B3F8F" opacity="0.09"/>
<circle cx="154.7" cy="1137.1" r="1.3" fill="#4B3F8F" opacity="0.27"/>
<circle cx="79.3" cy="1013.4" r="1.0" fill="#C23F8C" opacity="0.24"/>
<circle cx="70.8" cy="1044.6" r="1.8" fill="#7A3D74" opacity="0.14"/>
<circle cx="68.7" cy="759.9" r="1.4" fill="#4B3F8F" opacity="0.13"/>
<circle cx="316.0" cy="1149.9" r="1.6" fill="#7A3D74" opacity="0.12"/>
<circle cx="131.8" cy="236.7" r="1.6" fill="#C23F8C" opacity="0.29"/>
<circle cx="67.8" cy="1141.6" r="1.6" fill="#C23F8C" opacity="0.21"/>
<circle cx="683.9" cy="538.7" r="2.1" fill="#C23F8C" opacity="0.23"/>
<circle cx="887.9" cy="387.8" r="2.2" fill="#4B3F8F" opacity="0.17"/>
<circle cx="61.5" cy="530.6" r="1.1" fill="#7A3D74" opacity="0.15"/>
<circle cx="316.7" cy="89.0" r="1.3" fill="#4B3F8F" opacity="0.09"/>
<circle cx="748.5" cy="92.1" r="2.0" fill="#C23F8C" opacity="0.31"/>
<circle cx="534.7" cy="461.4" r="1.5" fill="#C23F8C" opacity="0.34"/>
<circle cx="806.3" cy="539.7" r="1.9" fill="#4B3F8F" opacity="0.26"/>
<circle cx="544.5" cy="601.6" r="2.1" fill="#4B3F8F" opacity="0.20"/>
<circle cx="884.1" cy="101.2" r="1.6" fill="#C23F8C" opacity="0.09"/>
<circle cx="394.0" cy="527.3" r="1.4" fill="#4B3F8F" opacity="0.12"/>
<circle cx="826.1" cy="464.9" r="1.8" fill="#7A3D74" opacity="0.26"/>
<circle cx="710.3" cy="776.8" r="0.7" fill="#C23F8C" opacity="0.11"/>
<circle cx="347.9" cy="302.4" r="2.0" fill="#C23F8C" opacity="0.34"/>
<circle cx="786.0" cy="400.0" r="1.5" fill="#4B3F8F" opacity="0.12"/>
<circle cx="279.2" cy="787.3" r="1.7" fill="#C23F8C" opacity="0.11"/>
<circle cx="844.2" cy="371.5" r="1.2" fill="#7A3D74" opacity="0.29"/>
<circle cx="603.1" cy="994.8" r="1.8" fill="#C23F8C" opacity="0.27"/>
<circle cx="84.1" cy="804.5" r="1.4" fill="#4B3F8F" opacity="0.08"/>
<circle cx="162.2" cy="257.0" r="2.1" fill="#7A3D74" opacity="0.21"/>
<circle cx="900.0" cy="185.9" r="1.1" fill="#C23F8C" opacity="0.29"/>
<circle cx="693.8" cy="1002.1" r="2.0" fill="#4B3F8F" opacity="0.09"/>
<circle cx="788.8" cy="741.6" r="1.6" fill="#7A3D74" opacity="0.12"/>
<circle cx="748.2" cy="925.3" r="1.9" fill="#4B3F8F" opacity="0.12"/>
<circle cx="39.3" cy="437.2" r="1.8" fill="#C23F8C" opacity="0.34"/>
<circle cx="256.4" cy="898.2" r="1.3" fill="#4B3F8F" opacity="0.22"/>
<circle cx="869.0" cy="941.2" r="2.0" fill="#C23F8C" opacity="0.13"/>
<circle cx="852.4" cy="1181.3" r="1.3" fill="#4B3F8F" opacity="0.16"/>
<circle cx="452.6" cy="502.4" r="0.9" fill="#C23F8C" opacity="0.13"/>
<circle cx="124.6" cy="300.0" r="1.6" fill="#C23F8C" opacity="0.32"/>
<circle cx="840.9" cy="853.7" r="1.4" fill="#7A3D74" opacity="0.11"/>
<circle cx="686.8" cy="327.3" r="2.0" fill="#4B3F8F" opacity="0.12"/>
<circle cx="82.5" cy="1092.6" r="1.9" fill="#7A3D74" opacity="0.32"/>
<circle cx="373.4" cy="475.7" r="1.2" fill="#7A3D74" opacity="0.18"/>
<circle cx="337.4" cy="33.8" r="2.1" fill="#C23F8C" opacity="0.31"/>
<circle cx="301.8" cy="175.3" r="0.7" fill="#4B3F8F" opacity="0.33"/>
<circle cx="626.5" cy="166.6" r="1.7" fill="#7A3D74" opacity="0.20"/>
<circle cx="815.3" cy="22.8" r="0.9" fill="#C23F8C" opacity="0.12"/>
<circle cx="548.0" cy="507.9" r="1.8" fill="#7A3D74" opacity="0.14"/>
<circle cx="43.0" cy="503.8" r="1.9" fill="#7A3D74" opacity="0.20"/>
<circle cx="753.0" cy="599.8" r="1.5" fill="#C23F8C" opacity="0.25"/>
<circle cx="217.7" cy="172.3" r="1.3" fill="#7A3D74" opacity="0.25"/>
<circle cx="513.6" cy="224.8" r="1.7" fill="#4B3F8F" opacity="0.22"/>
<circle cx="60.9" cy="631.3" r="1.4" fill="#C23F8C" opacity="0.35"/>
<circle cx="18.3" cy="1048.0" r="0.7" fill="#4B3F8F" opacity="0.18"/>
<circle cx="228.3" cy="19.5" r="1.9" fill="#C23F8C" opacity="0.17"/>
<circle cx="591.4" cy="124.4" r="1.5" fill="#7A3D74" opacity="0.28"/>
<circle cx="39.9" cy="655.2" r="1.9" fill="#C23F8C" opacity="0.13"/>
<circle cx="418.2" cy="834.5" r="1.6" fill="#7A3D74" opacity="0.30"/>
<circle cx="644.4" cy="1132.3" r="0.7" fill="#7A3D74" opacity="0.13"/>
<circle cx="797.2" cy="378.7" r="1.1" fill="#C23F8C" opacity="0.19"/>
<circle cx="426.1" cy="43.9" r="1.6" fill="#7A3D74" opacity="0.16"/>
<circle cx="779.2" cy="398.3" r="0.8" fill="#4B3F8F" opacity="0.18"/>
<circle cx="669.0" cy="1073.6" r="1.2" fill="#4B3F8F" opacity="0.34"/>
<circle cx="622.9" cy="440.8" r="1.9" fill="#7A3D74" opacity="0.15"/>
<circle cx="654.4" cy="94.7" r="1.6" fill="#C23F8C" opacity="0.30"/>
<circle cx="264.4" cy="123.1" r="1.1" fill="#4B3F8F" opacity="0.16"/>
<circle cx="542.4" cy="511.3" r="1.7" fill="#7A3D74" opacity="0.17"/>
<circle cx="654.1" cy="1093.9" r="1.6" fill="#C23F8C" opacity="0.20"/>
<circle cx="882.0" cy="1137.5" r="0.7" fill="#4B3F8F" opacity="0.25"/>
<circle cx="461.8" cy="899.9" r="0.9" fill="#C23F8C" opacity="0.09"/>
<circle cx="610.3" cy="525.8" r="0.8" fill="#C23F8C" opacity="0.14"/>
<circle cx="329.7" cy="459.4" r="1.5" fill="#C23F8C" opacity="0.24"/>
<circle cx="404.9" cy="445.2" r="1.3" fill="#7A3D74" opacity="0.10"/>
<circle cx="476.5" cy="477.6" r="1.6" fill="#7A3D74" opacity="0.15"/>
<circle cx="23.3" cy="223.3" r="1.4" fill="#7A3D74" opacity="0.33"/>
<circle cx="235.6" cy="312.3" r="1.3" fill="#4B3F8F" opacity="0.35"/>
<circle cx="624.6" cy="1198.4" r="0.9" fill="#7A3D74" opacity="0.12"/>
<circle cx="406.8" cy="1078.4" r="1.3" fill="#C23F8C" opacity="0.10"/>
<circle cx="870.8" cy="1183.9" r="1.7" fill="#C23F8C" opacity="0.27"/>
<circle cx="488.0" cy="1069.6" r="2.0" fill="#C23F8C" opacity="0.27"/>
<circle cx="573.9" cy="952.4" r="1.4" fill="#7A3D74" opacity="0.11"/>
<circle cx="712.9" cy="284.1" r="1.4" fill="#C23F8C" opacity="0.18"/>
<circle cx="332.0" cy="964.4" r="1.5" fill="#7A3D74" opacity="0.25"/>
<circle cx="59.2" cy="477.8" r="1.7" fill="#4B3F8F" opacity="0.21"/>
<circle cx="692.2" cy="988.0" r="0.7" fill="#C23F8C" opacity="0.34"/>
<circle cx="66.7" cy="559.0" r="1.4" fill="#C23F8C" opacity="0.11"/>
<circle cx="575.8" cy="218.4" r="2.1" fill="#7A3D74" opacity="0.20"/>
<circle cx="748.3" cy="621.7" r="1.1" fill="#C23F8C" opacity="0.12"/>
<circle cx="202.9" cy="1137.0" r="1.4" fill="#7A3D74" opacity="0.16"/>
<circle cx="225.5" cy="762.1" r="1.5" fill="#4B3F8F" opacity="0.11"/>
<circle cx="553.0" cy="112.1" r="1.6" fill="#C23F8C" opacity="0.24"/>
<circle cx="138.8" cy="790.5" r="1.8" fill="#C23F8C" opacity="0.24"/>
<circle cx="37.1" cy="1036.5" r="0.7" fill="#C23F8C" opacity="0.34"/>
<circle cx="238.2" cy="253.0" r="1.5" fill="#7A3D74" opacity="0.25"/>
<circle cx="448.2" cy="752.6" r="1.1" fill="#4B3F8F" opacity="0.34"/>
<circle cx="220.4" cy="968.8" r="1.2" fill="#C23F8C" opacity="0.20"/>
<circle cx="53.9" cy="527.5" r="1.4" fill="#C23F8C" opacity="0.14"/>
<circle cx="129.3" cy="1033.8" r="1.1" fill="#4B3F8F" opacity="0.35"/>
<circle cx="877.8" cy="156.9" r="1.2" fill="#4B3F8F" opacity="0.23"/>
<circle cx="217.6" cy="147.0" r="1.3" fill="#7A3D74" opacity="0.12"/>
<circle cx="261.2" cy="461.0" r="1.6" fill="#7A3D74" opacity="0.15"/>
<circle cx="732.1" cy="1120.5" r="1.8" fill="#7A3D74" opacity="0.13"/>
<circle cx="448.4" cy="617.7" r="1.4" fill="#7A3D74" opacity="0.16"/>
<circle cx="81.0" cy="471.9" r="1.3" fill="#C23F8C" opacity="0.14"/>
<circle cx="317.6" cy="60.6" r="1.4" fill="#C23F8C" opacity="0.32"/>
<circle cx="605.3" cy="342.9" r="0.6" fill="#7A3D74" opacity="0.11"/>
<circle cx="794.2" cy="873.0" r="1.8" fill="#4B3F8F" opacity="0.18"/>
<circle cx="46.0" cy="674.2" r="1.2" fill="#4B3F8F" opacity="0.16"/>
<circle cx="453.8" cy="917.3" r="1.0" fill="#C23F8C" opacity="0.35"/>
<circle cx="549.9" cy="154.4" r="0.8" fill="#4B3F8F" opacity="0.18"/>
<circle cx="502.0" cy="438.7" r="0.8" fill="#4B3F8F" opacity="0.24"/>
<circle cx="450.1" cy="54.4" r="0.8" fill="#4B3F8F" opacity="0.17"/>
<circle cx="467.4" cy="178.7" r="2.0" fill="#C23F8C" opacity="0.12"/>
<circle cx="286.7" cy="471.5" r="1.6" fill="#C23F8C" opacity="0.31"/>
<circle cx="302.7" cy="993.9" r="1.5" fill="#4B3F8F" opacity="0.27"/>
<circle cx="427.4" cy="20.0" r="1.1" fill="#4B3F8F" opacity="0.11"/>
<circle cx="525.3" cy="956.1" r="1.8" fill="#7A3D74" opacity="0.27"/>
<circle cx="537.2" cy="318.6" r="1.6" fill="#C23F8C" opacity="0.34"/>
<circle cx="519.9" cy="865.7" r="1.5" fill="#C23F8C" opacity="0.13"/>
<circle cx="649.1" cy="929.5" r="1.2" fill="#7A3D74" opacity="0.30"/>
<circle cx="28.4" cy="1137.8" r="0.8" fill="#4B3F8F" opacity="0.09"/>
<circle cx="376.9" cy="495.6" r="0.9" fill="#C23F8C" opacity="0.22"/>
<circle cx="828.5" cy="1047.4" r="1.8" fill="#7A3D74" opacity="0.10"/>
<circle cx="466.8" cy="673.1" r="2.2" fill="#4B3F8F" opacity="0.21"/>
<circle cx="282.4" cy="207.8" r="2.1" fill="#4B3F8F" opacity="0.17"/>
<circle cx="608.3" cy="1041.2" r="1.7" fill="#4B3F8F" opacity="0.30"/>
<circle cx="549.1" cy="230.7" r="1.0" fill="#7A3D74" opacity="0.23"/>
<circle cx="847.3" cy="1178.7" r="1.8" fill="#C23F8C" opacity="0.27"/>
<circle cx="634.5" cy="380.4" r="1.2" fill="#C23F8C" opacity="0.33"/>
<circle cx="246.1" cy="146.2" r="1.7" fill="#4B3F8F" opacity="0.18"/>
<circle cx="736.5" cy="1145.5" r="1.9" fill="#4B3F8F" opacity="0.16"/>
<circle cx="859.8" cy="94.8" r="2.1" fill="#C23F8C" opacity="0.26"/>
<circle cx="431.2" cy="242.5" r="1.5" fill="#C23F8C" opacity="0.33"/>
<circle cx="244.5" cy="131.1" r="1.8" fill="#7A3D74" opacity="0.14"/>
<circle cx="602.9" cy="637.2" r="1.6" fill="#4B3F8F" opacity="0.09"/>
<circle cx="297.3" cy="566.9" r="1.7" fill="#C23F8C" opacity="0.12"/>
<circle cx="880.1" cy="189.5" r="1.6" fill="#4B3F8F" opacity="0.32"/>
<circle cx="429.7" cy="239.3" r="2.1" fill="#C23F8C" opacity="0.17"/>
<circle cx="53.2" cy="922.5" r="1.6" fill="#C23F8C" opacity="0.14"/>
<circle cx="650.8" cy="1124.0" r="2.1" fill="#7A3D74" opacity="0.13"/>
<circle cx="840.5" cy="43.6" r="1.9" fill="#7A3D74" opacity="0.29"/>
<circle cx="842.9" cy="1154.6" r="2.1" fill="#7A3D74" opacity="0.32"/>
<circle cx="268.6" cy="723.3" r="2.1" fill="#4B3F8F" opacity="0.17"/>
<circle cx="890.2" cy="652.0" r="1.4" fill="#C23F8C" opacity="0.33"/>
<circle cx="421.2" cy="231.4" r="0.8" fill="#4B3F8F" opacity="0.12"/>
<circle cx="583.5" cy="862.3" r="0.6" fill="#4B3F8F" opacity="0.17"/>
<circle cx="511.0" cy="908.7" r="0.9" fill="#4B3F8F" opacity="0.31"/>
<circle cx="744.3" cy="618.3" r="0.7" fill="#7A3D74" opacity="0.26"/>
<circle cx="883.5" cy="572.9" r="2.1" fill="#4B3F8F" opacity="0.08"/>
<circle cx="212.0" cy="904.5" r="2.1" fill="#C23F8C" opacity="0.16"/>
<circle cx="515.6" cy="313.9" r="1.2" fill="#C23F8C" opacity="0.14"/>
<circle cx="106.4" cy="368.2" r="1.2" fill="#C23F8C" opacity="0.22"/>
<circle cx="692.9" cy="828.3" r="1.6" fill="#4B3F8F" opacity="0.33"/>
<circle cx="553.2" cy="263.0" r="0.8" fill="#C23F8C" opacity="0.12"/>
<circle cx="890.0" cy="448.3" r="1.7" fill="#C23F8C" opacity="0.33"/>
<circle cx="721.8" cy="990.7" r="1.8" fill="#C23F8C" opacity="0.26"/>
<circle cx="785.8" cy="98.2" r="1.3" fill="#7A3D74" opacity="0.27"/>
<circle cx="825.5" cy="134.7" r="1.9" fill="#7A3D74" opacity="0.32"/>
<circle cx="515.4" cy="179.8" r="1.1" fill="#7A3D74" opacity="0.22"/>
<circle cx="612.3" cy="860.3" r="1.4" fill="#4B3F8F" opacity="0.32"/>
<circle cx="727.8" cy="544.1" r="1.4" fill="#7A3D74" opacity="0.20"/>
<circle cx="502.9" cy="807.3" r="1.1" fill="#4B3F8F" opacity="0.09"/>
<circle cx="734.8" cy="895.0" r="1.5" fill="#4B3F8F" opacity="0.09"/>
<circle cx="630.3" cy="649.4" r="0.7" fill="#4B3F8F" opacity="0.32"/>
<circle cx="28.6" cy="490.6" r="1.8" fill="#C23F8C" opacity="0.29"/>
<circle cx="581.3" cy="504.4" r="2.2" fill="#4B3F8F" opacity="0.18"/>
<circle cx="338.1" cy="819.3" r="1.7" fill="#C23F8C" opacity="0.23"/>
<circle cx="774.3" cy="142.4" r="2.2" fill="#7A3D74" opacity="0.19"/>
<circle cx="655.1" cy="267.2" r="0.6" fill="#4B3F8F" opacity="0.09"/>
<circle cx="416.7" cy="862.9" r="1.3" fill="#7A3D74" opacity="0.18"/>
<circle cx="222.8" cy="415.4" r="1.0" fill="#C23F8C" opacity="0.33"/>
<circle cx="688.9" cy="38.7" r="1.7" fill="#7A3D74" opacity="0.25"/>
<circle cx="216.6" cy="80.7" r="1.6" fill="#C23F8C" opacity="0.20"/>
<circle cx="633.0" cy="58.4" r="1.8" fill="#7A3D74" opacity="0.19"/>
<circle cx="485.8" cy="905.3" r="1.8" fill="#4B3F8F" opacity="0.12"/>
<circle cx="210.7" cy="1099.7" r="1.5" fill="#C23F8C" opacity="0.24"/>
<circle cx="736.5" cy="284.3" r="2.0" fill="#C23F8C" opacity="0.35"/>
<circle cx="198.9" cy="360.6" r="0.7" fill="#C23F8C" opacity="0.34"/>
<circle cx="820.4" cy="751.2" r="1.3" fill="#4B3F8F" opacity="0.21"/>
<circle cx="847.4" cy="805.6" r="1.9" fill="#4B3F8F" opacity="0.17"/>
<circle cx="367.4" cy="359.9" r="0.9" fill="#7A3D74" opacity="0.23"/>
<circle cx="764.4" cy="360.9" r="1.7" fill="#7A3D74" opacity="0.30"/>
<circle cx="506.1" cy="1161.3" r="1.5" fill="#7A3D74" opacity="0.12"/>
<circle cx="229.5" cy="396.3" r="0.7" fill="#4B3F8F" opacity="0.20"/>
<circle cx="83.2" cy="869.5" r="0.9" fill="#C23F8C" opacity="0.15"/>
<circle cx="544.5" cy="47.5" r="0.7" fill="#C23F8C" opacity="0.30"/>
<circle cx="651.9" cy="670.6" r="1.4" fill="#4B3F8F" opacity="0.31"/>
<circle cx="272.9" cy="1090.8" r="0.9" fill="#C23F8C" opacity="0.13"/>
<circle cx="105.6" cy="1199.5" r="1.4" fill="#C23F8C" opacity="0.15"/>
<circle cx="633.4" cy="476.0" r="1.0" fill="#4B3F8F" opacity="0.17"/>
<circle cx="342.6" cy="640.4" r="1.2" fill="#C23F8C" opacity="0.15"/>
<circle cx="794.5" cy="559.2" r="1.9" fill="#4B3F8F" opacity="0.28"/>
<circle cx="822.9" cy="444.8" r="1.3" fill="#7A3D74" opacity="0.23"/>
<circle cx="667.1" cy="19.5" r="1.5" fill="#C23F8C" opacity="0.24"/>
<circle cx="375.8" cy="182.9" r="1.1" fill="#7A3D74" opacity="0.18"/>
<circle cx="449.4" cy="785.5" r="1.7" fill="#4B3F8F" opacity="0.15"/>
<circle cx="869.9" cy="770.0" r="1.4" fill="#4B3F8F" opacity="0.13"/>
<circle cx="152.3" cy="864.4" r="1.4" fill="#C23F8C" opacity="0.33"/>
<circle cx="891.3" cy="1148.7" r="1.4" fill="#7A3D74" opacity="0.31"/>
<circle cx="850.7" cy="801.9" r="1.8" fill="#C23F8C" opacity="0.19"/>
<circle cx="208.3" cy="848.6" r="0.6" fill="#4B3F8F" opacity="0.22"/>
<circle cx="54.4" cy="765.3" r="2.1" fill="#C23F8C" opacity="0.33"/>
<circle cx="439.1" cy="7.9" r="1.5" fill="#C23F8C" opacity="0.08"/>
<circle cx="650.0" cy="642.9" r="1.1" fill="#C23F8C" opacity="0.22"/>
<circle cx="606.6" cy="967.4" r="2.1" fill="#7A3D74" opacity="0.11"/>
<circle cx="471.9" cy="289.2" r="1.6" fill="#4B3F8F" opacity="0.15"/>
<circle cx="240.6" cy="476.3" r="1.2" fill="#C23F8C" opacity="0.19"/>
<circle cx="218.9" cy="836.7" r="1.1" fill="#7A3D74" opacity="0.30"/>
<circle cx="588.4" cy="1029.9" r="1.8" fill="#4B3F8F" opacity="0.11"/>
<circle cx="339.5" cy="571.2" r="1.6" fill="#7A3D74" opacity="0.27"/>
<circle cx="449.9" cy="520.7" r="1.9" fill="#7A3D74" opacity="0.23"/>
<circle cx="805.3" cy="1103.0" r="1.0" fill="#C23F8C" opacity="0.32"/>
<circle cx="798.8" cy="570.6" r="0.7" fill="#4B3F8F" opacity="0.10"/>
<circle cx="809.4" cy="676.2" r="0.7" fill="#4B3F8F" opacity="0.33"/>
<circle cx="14.1" cy="248.6" r="0.8" fill="#4B3F8F" opacity="0.30"/>
<circle cx="836.0" cy="359.1" r="1.5" fill="#4B3F8F" opacity="0.23"/>
<circle cx="609.3" cy="648.7" r="1.2" fill="#C23F8C" opacity="0.28"/>
<circle cx="651.7" cy="601.0" r="2.2" fill="#4B3F8F" opacity="0.09"/>
<circle cx="208.9" cy="91.2" r="1.6" fill="#C23F8C" opacity="0.25"/>
<circle cx="357.0" cy="928.3" r="0.6" fill="#4B3F8F" opacity="0.15"/>
<circle cx="441.5" cy="427.0" r="2.1" fill="#C23F8C" opacity="0.20"/>
<circle cx="527.3" cy="456.1" r="1.8" fill="#7A3D74" opacity="0.16"/>
<circle cx="641.8" cy="98.4" r="0.8" fill="#C23F8C" opacity="0.27"/>
<circle cx="138.8" cy="467.5" r="1.2" fill="#4B3F8F" opacity="0.10"/>
<circle cx="400.3" cy="913.6" r="0.8" fill="#4B3F8F" opacity="0.10"/>
<circle cx="404.0" cy="665.7" r="1.3" fill="#4B3F8F" opacity="0.09"/>
<circle cx="498.8" cy="716.3" r="1.9" fill="#7A3D74" opacity="0.31"/>
<circle cx="262.7" cy="465.4" r="0.7" fill="#7A3D74" opacity="0.32"/>
<circle cx="514.8" cy="203.5" r="1.2" fill="#4B3F8F" opacity="0.12"/>
<circle cx="241.6" cy="175.1" r="0.9" fill="#4B3F8F" opacity="0.15"/>
<circle cx="435.8" cy="92.3" r="1.0" fill="#C23F8C" opacity="0.15"/>
<circle cx="446.2" cy="740.0" r="1.3" fill="#7A3D74" opacity="0.12"/>
<circle cx="853.9" cy="398.7" r="1.6" fill="#4B3F8F" opacity="0.30"/>
<circle cx="396.2" cy="516.7" r="1.9" fill="#C23F8C" opacity="0.26"/>
<circle cx="122.5" cy="384.8" r="2.1" fill="#4B3F8F" opacity="0.13"/>
<circle cx="159.9" cy="477.9" r="1.1" fill="#C23F8C" opacity="0.28"/>
<circle cx="441.9" cy="691.1" r="1.0" fill="#4B3F8F" opacity="0.18"/>
<circle cx="328.5" cy="1118.5" r="0.9" fill="#7A3D74" opacity="0.35"/>
<circle cx="613.5" cy="660.1" r="2.1" fill="#C23F8C" opacity="0.20"/>
<circle cx="188.7" cy="957.2" r="1.9" fill="#4B3F8F" opacity="0.10"/>
<circle cx="605.7" cy="167.0" r="1.1" fill="#7A3D74" opacity="0.15"/>
<circle cx="643.7" cy="946.9" r="0.7" fill="#4B3F8F" opacity="0.35"/>
<circle cx="524.0" cy="641.2" r="2.1" fill="#4B3F8F" opacity="0.31"/>
<circle cx="489.3" cy="948.9" r="1.2" fill="#C23F8C" opacity="0.32"/>
<circle cx="534.4" cy="1097.3" r="0.8" fill="#C23F8C" opacity="0.15"/>
<circle cx="319.5" cy="776.4" r="0.7" fill="#C23F8C" opacity="0.35"/>
<circle cx="582.1" cy="1160.2" r="1.1" fill="#7A3D74" opacity="0.29"/>
<circle cx="9.5" cy="310.5" r="1.4" fill="#C23F8C" opacity="0.22"/>
<circle cx="618.9" cy="265.2" r="1.2" fill="#C23F8C" opacity="0.21"/>
<circle cx="529.7" cy="600.6" r="1.2" fill="#7A3D74" opacity="0.09"/>
<circle cx="265.9" cy="1104.7" r="0.7" fill="#C23F8C" opacity="0.30"/>
<circle cx="127.5" cy="374.3" r="1.3" fill="#4B3F8F" opacity="0.14"/>
<circle cx="313.5" cy="117.1" r="1.8" fill="#7A3D74" opacity="0.20"/>
<circle cx="270.2" cy="972.2" r="0.8" fill="#C23F8C" opacity="0.31"/>
<circle cx="98.4" cy="960.1" r="2.1" fill="#C23F8C" opacity="0.28"/>
<circle cx="157.0" cy="192.2" r="1.5" fill="#7A3D74" opacity="0.34"/>
<circle cx="718.0" cy="755.7" r="0.9" fill="#4B3F8F" opacity="0.26"/>
<circle cx="26.3" cy="736.9" r="0.9" fill="#4B3F8F" opacity="0.24"/>
<circle cx="4.0" cy="257.8" r="1.0" fill="#7A3D74" opacity="0.27"/>
<circle cx="519.6" cy="959.4" r="1.5" fill="#7A3D74" opacity="0.18"/>
<circle cx="411.8" cy="314.8" r="2.0" fill="#C23F8C" opacity="0.22"/>
<circle cx="282.1" cy="466.4" r="1.2" fill="#4B3F8F" opacity="0.11"/>
<circle cx="761.0" cy="740.8" r="1.9" fill="#4B3F8F" opacity="0.27"/>
<circle cx="826.8" cy="708.2" r="1.7" fill="#7A3D74" opacity="0.16"/>
<circle cx="274.8" cy="219.7" r="1.7" fill="#4B3F8F" opacity="0.22"/>
<circle cx="536.8" cy="689.8" r="1.3" fill="#C23F8C" opacity="0.21"/>
<circle cx="624.1" cy="774.3" r="2.2" fill="#4B3F8F" opacity="0.23"/>
<circle cx="260.0" cy="224.5" r="1.9" fill="#4B3F8F" opacity="0.25"/>
<circle cx="856.7" cy="581.5" r="0.9" fill="#C23F8C" opacity="0.18"/>
<circle cx="454.9" cy="594.0" r="1.7" fill="#4B3F8F" opacity="0.19"/>
<circle cx="439.8" cy="99.2" r="0.6" fill="#4B3F8F" opacity="0.29"/>
<circle cx="29.4" cy="269.8" r="1.1" fill="#C23F8C" opacity="0.29"/>
<circle cx="668.3" cy="919.1" r="1.5" fill="#7A3D74" opacity="0.11"/>
<circle cx="241.1" cy="651.7" r="2.2" fill="#7A3D74" opacity="0.23"/>
<circle cx="684.0" cy="529.6" r="0.9" fill="#C23F8C" opacity="0.19"/>
<circle cx="747.1" cy="901.6" r="1.1" fill="#4B3F8F" opacity="0.35"/>
<circle cx="236.5" cy="1034.6" r="0.7" fill="#7A3D74" opacity="0.31"/>
<circle cx="698.1" cy="284.3" r="1.9" fill="#4B3F8F" opacity="0.24"/>
<circle cx="774.9" cy="732.3" r="1.3" fill="#7A3D74" opacity="0.25"/>
<circle cx="732.2" cy="966.5" r="1.5" fill="#C23F8C" opacity="0.22"/>
<circle cx="484.9" cy="388.4" r="1.7" fill="#4B3F8F" opacity="0.16"/>
<circle cx="857.2" cy="617.3" r="2.0" fill="#7A3D74" opacity="0.30"/>
<circle cx="866.5" cy="942.8" r="2.1" fill="#C23F8C" opacity="0.35"/>
<circle cx="114.2" cy="1039.3" r="1.0" fill="#7A3D74" opacity="0.27"/>
<circle cx="685.3" cy="811.5" r="1.4" fill="#4B3F8F" opacity="0.24"/>
<circle cx="565.0" cy="450.2" r="0.7" fill="#7A3D74" opacity="0.29"/>
<circle cx="362.6" cy="899.8" r="1.7" fill="#4B3F8F" opacity="0.32"/>
<circle cx="855.2" cy="392.7" r="0.6" fill="#C23F8C" opacity="0.29"/>
<circle cx="83.8" cy="1166.6" r="1.6" fill="#7A3D74" opacity="0.27"/>
<circle cx="716.1" cy="477.3" r="2.1" fill="#4B3F8F" opacity="0.30"/>
<circle cx="241.7" cy="994.0" r="1.1" fill="#C23F8C" opacity="0.24"/>
<circle cx="767.2" cy="946.0" r="2.0" fill="#7A3D74" opacity="0.29"/>
<circle cx="89.6" cy="940.7" r="1.3" fill="#7A3D74" opacity="0.11"/>
<circle cx="397.2" cy="0.8" r="2.1" fill="#C23F8C" opacity="0.13"/>
<circle cx="818.5" cy="1058.6" r="1.1" fill="#4B3F8F" opacity="0.32"/>
<circle cx="84.0" cy="432.5" r="0.7" fill="#C23F8C" opacity="0.26"/>
<circle cx="149.0" cy="475.6" r="1.1" fill="#7A3D74" opacity="0.27"/>
<circle cx="386.3" cy="109.4" r="0.8" fill="#7A3D74" opacity="0.14"/>
<circle cx="119.4" cy="271.4" r="1.7" fill="#C23F8C" opacity="0.08"/>
<circle cx="309.2" cy="144.7" r="2.0" fill="#4B3F8F" opacity="0.27"/>
<circle cx="63.7" cy="459.7" r="1.8" fill="#4B3F8F" opacity="0.11"/>
<circle cx="330.8" cy="359.1" r="1.2" fill="#7A3D74" opacity="0.30"/>
<circle cx="577.4" cy="812.6" r="0.7" fill="#C23F8C" opacity="0.23"/>
<circle cx="585.0" cy="528.1" r="1.8" fill="#7A3D74" opacity="0.25"/>
<circle cx="827.9" cy="739.3" r="1.3" fill="#7A3D74" opacity="0.14"/>
<circle cx="126.0" cy="147.8" r="1.8" fill="#4B3F8F" opacity="0.17"/>
<circle cx="283.1" cy="167.8" r="1.0" fill="#C23F8C" opacity="0.10"/>
<circle cx="540.9" cy="865.4" r="1.1" fill="#7A3D74" opacity="0.33"/>
<circle cx="763.1" cy="790.1" r="1.1" fill="#C23F8C" opacity="0.22"/>
<circle cx="169.8" cy="470.1" r="1.6" fill="#7A3D74" opacity="0.29"/>
<circle cx="445.4" cy="135.3" r="1.4" fill="#C23F8C" opacity="0.24"/>
<circle cx="799.9" cy="14.5" r="1.2" fill="#4B3F8F" opacity="0.17"/>
<circle cx="774.7" cy="682.1" r="1.2" fill="#4B3F8F" opacity="0.26"/>
<circle cx="859.0" cy="924.4" r="0.6" fill="#4B3F8F" opacity="0.10"/>
<circle cx="194.2" cy="1107.1" r="2.1" fill="#4B3F8F" opacity="0.19"/>
<circle cx="565.7" cy="601.3" r="1.3" fill="#7A3D74" opacity="0.27"/>
<circle cx="576.5" cy="645.2" r="0.8" fill="#7A3D74" opacity="0.10"/>
<circle cx="460.2" cy="243.8" r="1.9" fill="#4B3F8F" opacity="0.22"/>
<circle cx="527.8" cy="915.9" r="1.6" fill="#4B3F8F" opacity="0.25"/>
<circle cx="628.8" cy="876.0" r="2.0" fill="#7A3D74" opacity="0.10"/>
<circle cx="832.2" cy="139.2" r="1.6" fill="#C23F8C" opacity="0.09"/>
<circle cx="667.5" cy="888.8" r="0.8" fill="#C23F8C" opacity="0.27"/>
<circle cx="10.2" cy="595.7" r="1.2" fill="#C23F8C" opacity="0.22"/>
<circle cx="233.3" cy="446.2" r="1.8" fill="#C23F8C" opacity="0.32"/>
<circle cx="797.8" cy="925.7" r="0.6" fill="#4B3F8F" opacity="0.30"/>
<circle cx="471.5" cy="315.5" r="2.2" fill="#4B3F8F" opacity="0.25"/>
<circle cx="409.7" cy="432.1" r="1.4" fill="#4B3F8F" opacity="0.23"/>
<circle cx="141.6" cy="928.0" r="2.0" fill="#7A3D74" opacity="0.26"/>
<circle cx="205.6" cy="610.6" r="0.7" fill="#7A3D74" opacity="0.31"/>
<circle cx="41.4" cy="436.8" r="2.1" fill="#7A3D74" opacity="0.13"/>
<circle cx="497.6" cy="1096.7" r="1.8" fill="#4B3F8F" opacity="0.19"/>
<circle cx="223.4" cy="1099.0" r="1.1" fill="#C23F8C" opacity="0.30"/>
<circle cx="335.5" cy="602.4" r="2.0" fill="#C23F8C" opacity="0.13"/>
<circle cx="883.3" cy="1144.9" r="0.7" fill="#4B3F8F" opacity="0.21"/>
<circle cx="696.2" cy="372.8" r="0.7" fill="#4B3F8F" opacity="0.20"/>
<circle cx="180.6" cy="676.6" r="1.1" fill="#4B3F8F" opacity="0.25"/>
<circle cx="331.4" cy="1166.2" r="2.2" fill="#C23F8C" opacity="0.29"/>
<circle cx="810.4" cy="912.6" r="1.0" fill="#4B3F8F" opacity="0.08"/>
<circle cx="21.5" cy="649.9" r="1.6" fill="#7A3D74" opacity="0.27"/>
<circle cx="855.9" cy="1.8" r="1.7" fill="#C23F8C" opacity="0.31"/>
<circle cx="276.8" cy="246.2" r="2.2" fill="#7A3D74" opacity="0.19"/>
<circle cx="875.3" cy="170.8" r="1.0" fill="#7A3D74" opacity="0.09"/>
<circle cx="807.6" cy="623.7" r="1.7" fill="#C23F8C" opacity="0.18"/>
<circle cx="76.4" cy="114.7" r="0.8" fill="#7A3D74" opacity="0.30"/>
<circle cx="532.7" cy="74.7" r="1.7" fill="#4B3F8F" opacity="0.12"/>
<circle cx="234.9" cy="378.0" r="1.9" fill="#C23F8C" opacity="0.27"/>
<circle cx="293.6" cy="543.3" r="1.0" fill="#7A3D74" opacity="0.33"/>
<circle cx="701.9" cy="701.6" r="0.8" fill="#4B3F8F" opacity="0.12"/>
<circle cx="282.6" cy="144.9" r="1.2" fill="#4B3F8F" opacity="0.29"/>
<circle cx="277.5" cy="318.0" r="0.8" fill="#C23F8C" opacity="0.12"/>
<circle cx="273.8" cy="845.6" r="1.6" fill="#4B3F8F" opacity="0.14"/>
<circle cx="133.5" cy="853.4" r="2.1" fill="#7A3D74" opacity="0.19"/>
<circle cx="609.5" cy="312.2" r="2.2" fill="#4B3F8F" opacity="0.09"/>
<circle cx="769.1" cy="667.1" r="1.5" fill="#7A3D74" opacity="0.11"/>
<circle cx="723.5" cy="167.8" r="0.6" fill="#7A3D74" opacity="0.30"/>
<circle cx="117.6" cy="988.4" r="1.2" fill="#C23F8C" opacity="0.25"/>
<circle cx="75.6" cy="703.3" r="2.1" fill="#7A3D74" opacity="0.10"/>
<circle cx="178.0" cy="775.2" r="1.9" fill="#4B3F8F" opacity="0.10"/>
<circle cx="110.3" cy="1130.7" r="0.7" fill="#4B3F8F" opacity="0.33"/>
<circle cx="739.5" cy="474.0" r="0.6" fill="#7A3D74" opacity="0.26"/>
<circle cx="318.5" cy="1090.0" r="1.0" fill="#7A3D74" opacity="0.20"/>
<circle cx="31.2" cy="743.0" r="1.0" fill="#4B3F8F" opacity="0.16"/>
<circle cx="794.5" cy="574.8" r="0.7" fill="#4B3F8F" opacity="0.18"/>
<circle cx="179.5" cy="1061.6" r="1.4" fill="#C23F8C" opacity="0.25"/>
<circle cx="715.4" cy="1187.3" r="1.9" fill="#C23F8C" opacity="0.18"/>
<circle cx="703.3" cy="412.8" r="1.5" fill="#4B3F8F" opacity="0.17"/>
<circle cx="161.8" cy="382.7" r="1.0" fill="#4B3F8F" opacity="0.32"/>
<circle cx="52.7" cy="1189.8" r="1.4" fill="#7A3D74" opacity="0.29"/>
<circle cx="876.6" cy="120.2" r="1.7" fill="#C23F8C" opacity="0.15"/>
<circle cx="50.3" cy="1195.7" r="1.0" fill="#4B3F8F" opacity="0.31"/>
<circle cx="319.3" cy="1007.1" r="2.0" fill="#C23F8C" opacity="0.13"/>
<circle cx="286.2" cy="885.7" r="1.2" fill="#C23F8C" opacity="0.24"/>
<circle cx="630.5" cy="1137.1" r="1.5" fill="#7A3D74" opacity="0.23"/>
<circle cx="753.0" cy="972.5" r="2.2" fill="#7A3D74" opacity="0.23"/>
<circle cx="441.4" cy="108.3" r="1.0" fill="#C23F8C" opacity="0.14"/>
<circle cx="430.2" cy="398.1" r="1.6" fill="#4B3F8F" opacity="0.30"/>
<circle cx="645.2" cy="1102.5" r="2.0" fill="#7A3D74" opacity="0.17"/>
<circle cx="132.9" cy="845.6" r="0.8" fill="#C23F8C" opacity="0.11"/>
<circle cx="774.6" cy="1152.7" r="1.2" fill="#4B3F8F" opacity="0.33"/>
<circle cx="527.4" cy="403.9" r="1.1" fill="#C23F8C" opacity="0.34"/>
<circle cx="853.8" cy="950.2" r="2.1" fill="#7A3D74" opacity="0.26"/>
<circle cx="636.5" cy="674.4" r="2.0" fill="#4B3F8F" opacity="0.25"/>
<circle cx="200.9" cy="706.7" r="0.9" fill="#C23F8C" opacity="0.16"/>
<circle cx="265.1" cy="213.2" r="0.6" fill="#C23F8C" opacity="0.27"/>
<circle cx="352.4" cy="1193.1" r="2.1" fill="#C23F8C" opacity="0.09"/>
<circle cx="286.4" cy="970.6" r="1.6" fill="#7A3D74" opacity="0.25"/>
<circle cx="843.0" cy="168.8" r="1.8" fill="#4B3F8F" opacity="0.14"/>
<circle cx="151.1" cy="1062.4" r="0.7" fill="#C23F8C" opacity="0.27"/>
<circle cx="656.4" cy="402.9" r="0.6" fill="#C23F8C" opacity="0.14"/>
<circle cx="61.0" cy="308.0" r="0.8" fill="#4B3F8F" opacity="0.08"/>
<circle cx="394.4" cy="503.6" r="0.9" fill="#4B3F8F" opacity="0.19"/>
<circle cx="316.1" cy="450.4" r="1.9" fill="#C23F8C" opacity="0.29"/>
<circle cx="585.9" cy="824.6" r="0.9" fill="#7A3D74" opacity="0.10"/>
<circle cx="265.4" cy="382.5" r="2.1" fill="#7A3D74" opacity="0.10"/>
<circle cx="799.1" cy="193.1" r="0.7" fill="#7A3D74" opacity="0.33"/>
<circle cx="304.2" cy="1182.3" r="2.0" fill="#4B3F8F" opacity="0.27"/>

<!-- disco ball halftone, cropped top right -->
<g clip-path="url(#discoClip)">
  <circle cx="760" cy="120" r="230" fill="url(#halftone)"/>
</g>
<circle cx="760" cy="120" r="230" fill="none" stroke="#4B3F8F" stroke-width="2" opacity="0.5"/>

<!-- lavender blob shape center -->
<path d="M 430 640
  C 340 610, 300 700, 340 780
  C 300 860, 360 950, 460 970
  C 560 1000, 660 960, 680 870
  C 720 800, 690 700, 610 660
  C 560 630, 490 620, 430 640 Z"
  fill="#B8A9E8" stroke="#8B7BC7" stroke-width="3"/>

<!-- headline -->
<text x="60" y="150" class="headline" font-size="128" fill="#C23F8C">MIDNIGHT</text>
<text x="60" y="270" class="headline" font-size="128" fill="#4B3F8F">ECHO</text>

<!-- date/time top -->
<text x="640" y="420" text-anchor="end" class="body-text" font-size="34" font-weight="700" fill="#C23F8C">07.18</text>
<text x="640" y="460" text-anchor="end" class="body-text" font-size="34" font-weight="700" fill="#C23F8C">20.00</text>

<!-- curved / stacked subtitle text near blob -->
<text class="badge-text" font-size="30" fill="#4B3F8F" transform="translate(230,700) rotate(-18)">live</text>
<text class="badge-text" font-size="30" fill="#4B3F8F" transform="translate(220,745) rotate(-8)">tonight</text>

<!-- starburst badge -->
<polygon points="827.4,665.8 785.9,680.6 800.8,722.1 757.2,715.9 751.1,759.5 715.4,733.7 689.7,769.6 670.0,730.2 630.7,750.0 631.6,705.9 587.5,705.2 608.8,666.6 570.1,645.4 606.9,621.1 582.5,584.4 626.3,580.0 621.8,536.2 662.6,552.7 679.0,511.7 707.5,545.3 741.0,516.6 750.7,559.6 793.6,549.8 782.2,592.4 824.8,603.7 794.9,636.0" fill="#E85B9E"/>
<text x="700" y="615" text-anchor="middle" class="badge-text" font-size="22" fill="#4B1528">encore</text>
<text x="700" y="650" text-anchor="middle" class="badge-text" font-size="30" fill="#4B1528">sold</text>
<text x="700" y="685" text-anchor="middle" class="badge-text" font-size="30" fill="#4B1528">out</text>

<!-- cassette / tape linework bottom left -->
<g transform="translate(30,980)" fill="none" stroke="#C23F8C" stroke-width="2.5" opacity="0.85">
  <rect x="0" y="0" width="330" height="200" rx="14" transform="rotate(-6)"/>
  <circle cx="90" cy="60" r="46" transform="rotate(-6)"/>
  <circle cx="90" cy="60" r="20" transform="rotate(-6)"/>
  <circle cx="230" cy="90" r="46" transform="rotate(-6)"/>
  <circle cx="230" cy="90" r="20" transform="rotate(-6)"/>
  <circle cx="25" cy="15" r="7" transform="rotate(-6)"/>
  <circle cx="300" cy="30" r="7" transform="rotate(-6)"/>
  <circle cx="25" cy="175" r="7" transform="rotate(-6)"/>
  <circle cx="300" cy="190" r="7" transform="rotate(-6)"/>
</g>

<!-- footer band info -->
<text x="60" y="1120" class="body-text" font-size="20" font-weight="600" fill="#4B3F8F">the velvet static / echo house / doors 7pm</text>
<text x="60" y="1150" class="body-text" font-size="18" fill="#C23F8C">tickets at echohouse.live</text>

</svg>